<?xml version="1.0" encoding="UTF-8"?>
<svg version="1.1" xmlns="http://www.w3.org/2000/svg" width="948" height="370">
<path d="M0 0 C312.84 0 625.68 0 948 0 C948 122.1 948 244.2 948 370 C635.16 370 322.32 370 0 370 C0 247.9 0 125.8 0 0 Z " fill="#071519" transform="translate(0,0)"/>
<path d="M0 0 C8.58 0 17.16 0 26 0 C26 18.48 26 36.96 26 56 C44.15 56 62.3 56 81 56 C81 37.52 81 19.04 81 0 C89.58 0 98.16 0 107 0 C107 46.53 107 93.06 107 141 C98.42 141 89.84 141 81 141 C81 121.2 81 101.4 81 81 C62.85 81 44.7 81 26 81 C26 100.8 26 120.6 26 141 C17.42 141 8.84 141 0 141 C0 94.47 0 47.94 0 0 Z " fill="#FAFAFA" transform="translate(207,94)"/>
<path d="M0 0 C8.38082745 -0.11362767 16.7610413 -0.20507204 25.14243603 -0.25906086 C29.03560021 -0.28499209 32.92820346 -0.32008126 36.82104492 -0.37719727 C40.58827926 -0.43211513 44.35497919 -0.46154388 48.12258339 -0.47438622 C49.5493338 -0.48352042 50.97605986 -0.50135273 52.40257835 -0.52865028 C64.20052278 -0.74513003 74.47701313 1.12974532 83.9375 8.625 C92.58034837 16.99726196 95.14379591 26.0683504 95.33203125 37.66992188 C95.34621094 38.91322266 95.36039062 40.15652344 95.375 41.4375 C95.43107422 43.25024414 95.43107422 43.25024414 95.48828125 45.09960938 C95.60125779 56.81778753 92.54955946 67.10197313 84.875 76.1328125 C75.90546156 85.06497786 65.00609596 86.3045719 52.90562439 86.29014587 C50.06196859 86.26733332 47.21848145 86.22638424 44.375 86.1875 C37.98125 86.125625 31.5875 86.06375 25 86 C25 104.15 25 122.3 25 141 C16.75 141 8.5 141 0 141 C-0.04204157 133.71279371 -0.08210072 126.42603153 -0.10350037 119.1388092 C-0.11402308 115.74466719 -0.12806465 112.35062651 -0.15087891 108.95654297 C-0.17522296 105.05433486 -0.18650525 101.15227037 -0.1953125 97.25 C-0.20563507 96.04448486 -0.21595764 94.83896973 -0.22659302 93.59692383 C-0.22789054 83.80009673 0.41287726 75.8145883 7.53515625 68.40234375 C14.24296061 62.18349096 21.19915059 60.55976866 30.1015625 60.62890625 C31.82552294 60.61153624 33.54948124 60.59395175 35.2734375 60.57617188 C37.95707007 60.56608488 40.64056795 60.56250986 43.32421875 60.56420898 C45.93789886 60.56063187 48.55056386 60.53328216 51.1640625 60.50390625 C51.96107574 60.51208878 52.75808899 60.5202713 53.57925415 60.52870178 C58.834789 60.45880148 61.83167442 59.48101642 66 56 C69.0248889 51.4883013 69.51997811 47.31417817 69.5 42 C69.52835937 41.31421875 69.55671875 40.6284375 69.5859375 39.921875 C69.6003702 36.14050747 69.06670691 33.57674999 66.78125 30.625 C62.46200842 26.54841244 58.86580128 25.7563058 53.01635742 25.68115234 C51.83551071 25.66128265 50.654664 25.64141296 49.43803406 25.62094116 C48.17328751 25.60938995 46.90854095 25.59783875 45.60546875 25.5859375 C44.30297684 25.56657135 43.00048492 25.5472052 41.65852356 25.5272522 C38.2079265 25.47605482 34.75729056 25.43636324 31.30651855 25.39910889 C27.78042074 25.35899112 24.25448292 25.30793438 20.72851562 25.2578125 C13.81912102 25.16120018 6.90963223 25.07776063 0 25 C0 16.75 0 8.5 0 0 Z " fill="#FAFBFB" transform="translate(87,94)"/>
<path d="M0 0 C8.25 0 16.5 0 25 0 C26.55460938 3.84978516 26.55460938 3.84978516 28.140625 7.77734375 C29.15636744 10.28961961 30.1726412 12.80167992 31.18896484 15.3137207 C31.88971486 17.0465694 32.58992081 18.77963824 33.28955078 20.51293945 C34.30094328 23.01833615 35.3143535 25.52290889 36.328125 28.02734375 C36.78931732 29.17166115 36.78931732 29.17166115 37.25982666 30.33909607 C39.1482283 34.99756549 41.14405238 39.58863332 43.25408936 44.15138245 C44 46 44 46 44 48 C43.24976563 48.23074219 42.49953125 48.46148437 41.7265625 48.69921875 C35.5048614 50.68170034 29.83866362 52.91502618 24.15625 56.14453125 C22 57 22 57 19.890625 56.9453125 C17.14697201 55.573486 16.52691879 53.80945185 15.25 51.0625 C14.82203125 50.16660156 14.3940625 49.27070313 13.953125 48.34765625 C13 46 13 46 13 44 C12.34 44 11.68 44 11 44 C10.85304688 44.62003906 10.70609375 45.24007812 10.5546875 45.87890625 C8.81404493 52.75144331 6.42017352 59.20903778 3.6953125 65.73828125 C1.29884374 71.76258405 -0.81937556 77.89425157 -3 84 C11.85 84 26.7 84 42 84 C40.09495375 87.8100925 37.86262443 90.92978979 35.25 94.25 C34.40048794 95.33810959 33.55153685 96.42665735 32.703125 97.515625 C32.2488916 98.06734375 31.7946582 98.6190625 31.32666016 99.1875 C29.91908667 100.98329009 29.91908667 100.98329009 28.99755859 103.1875 C27.57995351 105.91278083 26.56520614 107.26446095 24 109 C17.68644072 110.01473501 11.49488441 109.75222553 5.125 109.5 C3.36987233 109.45984579 1.61465694 109.42334838 -0.140625 109.390625 C-4.42925532 109.30271886 -8.71366505 109.16483465 -13 109 C-13.1861084 109.7027002 -13.3722168 110.40540039 -13.56396484 111.12939453 C-18.05541566 127.87645496 -23.12251812 144.4952986 -38.25 154.6328125 C-45.55912184 158.26660887 -51.93317298 159.43346102 -60.0625 159.1875 C-60.92810547 159.17396484 -61.79371094 159.16042969 -62.68554688 159.14648438 C-64.79064174 159.1115933 -66.89540974 159.05780665 -69 159 C-65.8363242 155.22911422 -62.68681599 151.59080713 -59.0625 148.25 C-44.86826434 134.10983762 -39.90435944 112.34685927 -33.4375 93.9375 C-32.68844606 91.81174498 -31.93909874 89.68609332 -31.18945312 87.56054688 C-30.09803473 84.46568497 -29.00695661 81.3707071 -27.91743469 78.275177 C-26.11822291 73.16381891 -24.30870639 68.05667093 -22.4765625 62.95703125 C-20.32837253 56.95907426 -18.23739897 50.94199035 -16.15234375 44.921875 C-15.81051559 43.93530411 -15.46868744 42.94873322 -15.11650085 41.93226624 C-13.69726493 37.83488907 -12.2784749 33.73736289 -10.86303711 29.63867188 C-9.81580332 26.60731903 -8.76554913 23.57702601 -7.71484375 20.546875 C-7.4011937 19.63621277 -7.08754364 18.72555054 -6.76438904 17.78729248 C-6.30855186 16.47477509 -6.30855186 16.47477509 -5.84350586 15.13574219 C-5.45309364 14.00661407 -5.45309364 14.00661407 -5.05479431 12.85467529 C-3.45898263 8.53580085 -1.70998251 4.27495628 0 0 Z " fill="#F9FAFA" transform="translate(659,94)"/>
<path d="M0 0 C4.12435585 -0.32389226 8.24372644 -0.5582394 12.37792969 -0.71411133 C13.7796314 -0.77910049 15.18046425 -0.867554 16.57910156 -0.98071289 C21.25721468 -1.34942295 25.44085623 -1.3454537 30 0 C33.31943909 3.27803237 35.20465437 6.91811863 37.11114502 11.10446167 C38.29541271 13.6299859 39.67162579 16.02274593 41.06088257 18.43983459 C42.46152371 20.88272151 43.81180846 23.35203286 45.16479492 25.8215332 C46.19379476 27.69898504 47.22836544 29.57328545 48.26367188 31.44726562 C51.6682115 37.62943054 54.98009856 43.82847579 57.9855957 50.21801758 C58.87870154 52.17104386 58.87870154 52.17104386 61 53 C61.26176025 52.30213379 61.52352051 51.60426758 61.79321289 50.88525391 C63.11018913 47.73655367 64.65830397 44.823636 66.30859375 41.8359375 C66.63018967 41.24996292 66.95178558 40.66398834 67.28312683 40.06025696 C69.051485 36.84615169 70.84719868 33.64908398 72.66748047 30.46411133 C75.95199664 24.69170475 79.09378822 19.09407737 81.44921875 12.86328125 C85.50525228 2.80077683 85.50525228 2.80077683 90 0 C99.80510816 -2.23093357 110.108795 -1.15623646 120 0 C113.5546875 13.1484375 113.5546875 13.1484375 110.15234375 18.75 C106.7987944 24.27170195 103.73660734 29.93100563 100.6875 35.625 C93.63378982 48.72446177 93.63378982 48.72446177 90.50930786 54.23812866 C89.80139575 55.49372084 89.09944484 56.75271536 88.40661621 58.01669312 C86.48703013 61.4947254 84.46668508 64.81674537 82.20825195 68.0859375 C72.4988241 82.81157335 72.50439728 96.53300385 72.8125 113.75 C72.81947558 116.40493947 72.82146209 119.05989693 72.81835938 121.71484375 C72.81234062 128.14688157 72.90814234 134.56569113 73 141 C64.42 141 55.84 141 47 141 C47.06703125 137.14054688 47.1340625 133.28109375 47.203125 129.3046875 C47.22723297 125.48813907 47.23052073 121.67208555 47.23193359 117.85546875 C47.24379995 115.24102287 47.27667312 112.6265716 47.33251953 110.01269531 C47.69871987 92.00669373 45.59215138 79.38324675 35.49765015 64.29127502 C33.15580061 60.70844805 31.15381033 56.95306467 29.125 53.1875 C28.317275 51.73186621 27.50760432 50.27730904 26.6953125 48.82421875 C26.27024414 48.06286621 25.84517578 47.30151367 25.40722656 46.51708984 C22.60777232 41.50973849 19.80385151 36.50488999 17 31.5 C15.22866049 28.33734069 13.45746093 25.17460319 11.68652344 22.01171875 C10.59121627 20.0557678 9.49553467 18.10002646 8.39941406 16.14453125 C6.97247444 13.59754049 5.54829454 11.04902897 4.125 8.5 C3.7021875 7.74654297 3.279375 6.99308594 2.84375 6.21679688 C0 1.11449033 0 1.11449033 0 0 Z " fill="#FBFCFC" transform="translate(333,94)"/>
<path d="M0 0 C5.58393531 0.40305892 10.94550519 1.11470392 16.3659668 2.52905273 C15.1885946 6.40729173 13.89530226 9.59690227 11.6003418 12.93530273 C11.04685059 13.75071533 10.49335937 14.56612793 9.9230957 15.40625 C9.32674316 16.2717749 8.73039063 17.1372998 8.1159668 18.02905273 C6.84568948 19.90136271 5.57752628 21.77510844 4.3112793 23.65014648 C3.65933594 24.61549316 3.00739258 25.58083984 2.33569336 26.57543945 C-1.46900715 32.2806039 -5.11915483 38.08437953 -8.76782227 43.89013672 C-11.22312642 47.78685795 -13.68056536 51.6572142 -16.3605957 55.40405273 C-17.11083008 56.45592773 -17.86106445 57.50780273 -18.6340332 58.59155273 C-19.2734082 59.4487793 -19.9127832 60.30600586 -20.5715332 61.18920898 C-21.89039776 63.47002479 -21.89039776 63.47002479 -21.1184082 65.83764648 C-19.12224515 69.45700529 -17.05436234 73.0111967 -14.8840332 76.52905273 C-14.41247803 77.29854248 -13.94092285 78.06803223 -13.45507812 78.86083984 C-8.83894577 86.32489115 -3.97347448 93.61911807 0.94506836 100.88647461 C1.52095703 101.73918945 2.0968457 102.5919043 2.69018555 103.47045898 C3.46495239 104.61043335 3.46495239 104.61043335 4.25537109 105.7734375 C5.3659668 107.52905273 5.3659668 107.52905273 5.3659668 108.52905273 C4.45975586 108.55483398 3.55354492 108.58061523 2.61987305 108.60717773 C-4.14460822 108.92213771 -9.7354201 109.39982556 -15.7668457 112.59155273 C-17.71016536 113.56727809 -19.52428369 114.03457165 -21.6340332 114.52905273 C-23.61472652 111.40501789 -25.59332722 108.27966309 -27.5715332 105.15405273 C-28.41748047 103.81987305 -28.41748047 103.81987305 -29.28051758 102.45874023 C-29.81870117 101.60795898 -30.35688477 100.75717773 -30.91137695 99.88061523 C-31.65762329 98.70233154 -31.65762329 98.70233154 -32.41894531 97.50024414 C-33.6340332 95.52905273 -33.6340332 95.52905273 -34.6340332 93.52905273 C-35.2940332 93.52905273 -35.9540332 93.52905273 -36.6340332 93.52905273 C-37.95633638 95.1393289 -37.95633638 95.1393289 -39.2512207 97.27124023 C-39.76990723 98.08141602 -40.28859375 98.8915918 -40.82299805 99.72631836 C-41.37938965 100.6099707 -41.93578125 101.49362305 -42.5090332 102.40405273 C-43.68503207 104.24589144 -44.86213936 106.08702284 -46.0402832 107.92749023 C-46.6384082 108.86431641 -47.2365332 109.80114258 -47.8527832 110.76635742 C-50.96306299 115.59036045 -54.17976207 120.34344569 -57.41088867 125.0871582 C-57.86351074 125.7589209 -58.31613281 126.43068359 -58.7824707 127.12280273 C-59.25128662 127.80052734 -59.72010254 128.47825195 -60.203125 129.17651367 C-61.75324215 131.59744257 -61.75324215 131.59744257 -62.98095703 134.7019043 C-64.5746791 138.20040667 -65.94699825 140.76753233 -68.6340332 143.52905273 C-74.01700369 145.01715177 -79.04962309 144.67512072 -84.5715332 144.27905273 C-86.03290249 144.21879008 -87.49451053 144.16404902 -88.95629883 144.11499023 C-92.52054258 143.98339882 -96.07575979 143.77683894 -99.6340332 143.52905273 C-95.25169004 136.51813053 -90.69271097 129.69049334 -85.8840332 122.96655273 C-80.85941609 115.86959819 -76.15770609 108.66195147 -71.69116211 101.20336914 C-68.35537909 95.651119 -64.85932748 90.22590655 -61.2590332 84.84155273 C-60.77096191 84.1111377 -60.28289063 83.38072266 -59.7800293 82.62817383 C-59.31161621 81.93159668 -58.84320312 81.23501953 -58.3605957 80.51733398 C-57.91103516 79.84653809 -57.46147461 79.17574219 -56.99829102 78.48461914 C-56.08305494 77.17269341 -55.12794247 75.88777338 -54.13696289 74.63208008 C-51.35790718 71.28422292 -51.35790718 71.28422292 -50.80834961 67.14794922 C-51.74861388 64.16562667 -53.04403555 61.94805419 -54.7590332 59.33374023 C-55.38293945 58.37081055 -56.0068457 57.40788086 -56.6496582 56.41577148 C-57.30450195 55.4219043 -57.9593457 54.42803711 -58.6340332 53.40405273 C-59.92850931 51.42411586 -61.22030497 49.44242316 -62.5090332 47.45874023 C-63.08395508 46.58459473 -63.65887695 45.71044922 -64.2512207 44.80981445 C-65.6340332 42.52905273 -65.6340332 42.52905273 -66.6340332 39.52905273 C-65.82063477 39.68728516 -65.00723633 39.84551758 -64.16918945 40.00854492 C-55.09768768 41.49069974 -44.06721432 43.13412875 -35.6340332 38.52905273 C-29.60353934 32.93912176 -25.94819654 25.01530677 -22.03442383 17.89892578 C-12.28854308 0.44539761 -12.28854308 0.44539761 0 0 Z " fill="#FAFBFB" transform="translate(829.634033203125,91.470947265625)"/>
<path d="M0 0 C40.26 0 80.52 0 122 0 C120.01575515 3.9684897 117.63490923 6.94743635 114.75 10.25 C113.80490321 11.3364686 112.86221552 12.42503724 111.921875 13.515625 C111.2337054 14.30015423 111.2337054 14.30015423 110.53163338 15.10053253 C108.95856402 16.96363156 108.95856402 16.96363156 107.7585125 19.05834198 C104.33926152 24.55655872 104.33926152 24.55655872 100.81244278 25.72431946 C98.13183575 25.98502334 95.5559498 25.99044271 92.86376953 25.90820312 C91.8582756 25.90937134 90.85278168 25.91053955 89.81681824 25.91174316 C86.50406178 25.90618381 83.19493725 25.84403024 79.8828125 25.78125 C77.58212246 25.76632391 75.28140695 25.75493863 72.98068237 25.74694824 C66.93344571 25.71644397 60.88775321 25.63789268 54.84112549 25.54931641 C48.66773366 25.46738981 42.49409159 25.43092202 36.3203125 25.390625 C24.21275502 25.30489848 12.10674767 25.16421067 0 25 C0 16.75 0 8.5 0 0 Z " fill="#FAFAFA" transform="translate(473,210)"/>
<path d="M0 0 C1.76497951 -0.00782324 1.76497951 -0.00782324 3.56561518 -0.01580453 C4.86967483 -0.01134309 6.17373448 -0.00688164 7.5173111 -0.002285 C8.90767121 -0.00458744 10.29803011 -0.0077625 11.68838644 -0.01173949 C15.52236971 -0.02012602 19.35625403 -0.01594484 23.19023776 -0.00976706 C27.31980244 -0.00525925 31.44934958 -0.01221798 35.57891083 -0.0177269 C43.67400292 -0.0266405 51.76905802 -0.02469016 59.8641516 -0.01890162 C66.44065444 -0.01439284 73.01714688 -0.01376881 79.59365082 -0.01594925 C80.52809913 -0.01625572 81.46254744 -0.01656218 82.42531237 -0.01687793 C84.32336684 -0.01751736 86.22142131 -0.01816578 88.11947578 -0.01882312 C105.93579893 -0.02453217 123.75210153 -0.01795951 141.5684213 -0.00722238 C156.87012045 0.00171365 172.17178926 0.00016177 187.47348785 -0.00905991 C205.22416194 -0.01975239 222.974818 -0.02398279 240.72549486 -0.01783538 C242.61673768 -0.01719825 244.5079805 -0.01656951 246.39922333 -0.01594925 C247.79517397 -0.01548642 247.79517397 -0.01548642 249.21932563 -0.01501425 C255.79124864 -0.01328424 262.36316024 -0.01620898 268.93508148 -0.02090836 C276.9392957 -0.02650586 284.94347066 -0.02502465 292.94768035 -0.01434687 C297.03495182 -0.00907486 301.12215774 -0.00705926 305.20942879 -0.01364517 C308.94612037 -0.01957532 312.68268525 -0.01637852 316.41936523 -0.00569007 C318.42199657 -0.00237371 320.4246366 -0.00895317 322.42725897 -0.01580453 C323.60391198 -0.01058903 324.78056499 -0.00537354 325.99287415 0 C327.52569778 0.00048706 327.52569778 0.00048706 329.08948755 0.00098395 C331.49643707 0.25168228 331.49643707 0.25168228 333.49643707 2.25168228 C333.1296205 5.18621489 332.63206461 6.11605474 330.49643707 8.25168228 C328.08948755 8.50238061 328.08948755 8.50238061 324.99287415 8.50336456 C323.81622114 8.50858006 322.63956813 8.51379555 321.42725897 8.51916909 C320.12319932 8.51470765 318.81913966 8.51024621 317.47556305 8.50564957 C316.08520294 8.507952 314.69484404 8.51112706 313.30448771 8.51510406 C309.47050444 8.52349058 305.63662011 8.5193094 301.80263638 8.51313162 C297.67307171 8.50862382 293.54352456 8.51558254 289.41396332 8.52109146 C281.31887122 8.53000506 273.22381612 8.52805473 265.12872255 8.52226618 C258.55221971 8.51775741 251.97572727 8.51713338 245.39922333 8.51931381 C244.46477502 8.51962028 243.5303267 8.51992674 242.56756178 8.5202425 C240.6695073 8.52088192 238.77145283 8.52153035 236.87339836 8.52218768 C219.05707522 8.52789673 201.24077262 8.52132407 183.42445284 8.51058695 C168.1227537 8.50165092 152.82108489 8.5032028 137.51938629 8.51242447 C119.7687122 8.52311696 102.01805614 8.52734736 84.26737928 8.52119994 C82.37613646 8.52056281 80.48489364 8.51993407 78.59365082 8.51931381 C77.66301706 8.51900526 76.7323833 8.51869671 75.77354851 8.51837881 C69.20162551 8.5166488 62.6297139 8.51957354 56.05779266 8.52427292 C48.05357845 8.52987043 40.04940348 8.52838921 32.04519379 8.51771143 C27.95792233 8.51243942 23.8707164 8.51042383 19.78344536 8.51700974 C16.04675377 8.52293988 12.3101889 8.51974308 8.57350892 8.50905463 C6.57087758 8.50573827 4.56823754 8.51231773 2.56561518 8.51916909 C1.38896217 8.5139536 0.21230916 8.5087381 -1 8.50336456 C-2.02188242 8.50303986 -3.04376485 8.50271515 -4.09661341 8.50238061 C-6.50356293 8.25168228 -6.50356293 8.25168228 -8.50356293 6.25168228 C-7.80348693 0.65107428 -5.1954928 0.00165088 0 0 Z " fill="#E8EBEC" transform="translate(507.5035629272461,277.74831771850586)"/>
<path d="M0 0 C7.92 0 15.84 0 24 0 C24 31.68 24 63.36 24 96 C16.08 96 8.16 96 0 96 C0 64.32 0 32.64 0 0 Z " fill="#FDFEFE" transform="translate(474,94)"/>
<path d="M0 0 C0.92933192 -0.00322445 1.85866385 -0.00644889 2.81615734 -0.00977105 C4.35786083 -0.00744815 4.35786083 -0.00744815 5.93070984 -0.00507832 C7.01723248 -0.00734387 8.10375513 -0.00960943 9.22320271 -0.01194364 C12.88832962 -0.01830764 16.55341979 -0.01745274 20.21855164 -0.01662922 C22.83625843 -0.01961918 25.45396477 -0.02302133 28.07167053 -0.02680683 C34.45824598 -0.03512439 40.84481221 -0.03786216 47.23139262 -0.03841921 C52.42011697 -0.03889379 57.60883826 -0.0409456 62.79756165 -0.04411983 C77.49539813 -0.05292892 92.19322729 -0.05753874 106.89106643 -0.05678936 C108.08039329 -0.05672943 108.08039329 -0.05672943 109.29374695 -0.05666828 C110.08759485 -0.0566274 110.88144276 -0.05658652 111.69934666 -0.0565444 C124.57273511 -0.05613771 137.44609434 -0.06571234 150.31947434 -0.07980665 C163.52487432 -0.09415089 176.73026002 -0.10107793 189.93566799 -0.10021287 C197.35473298 -0.09988026 204.77376733 -0.10265555 212.19282532 -0.11339092 C219.16619041 -0.12341644 226.1394896 -0.12318063 233.11285782 -0.11587429 C235.67921162 -0.11482316 238.24556938 -0.11722234 240.81191635 -0.12323475 C244.30129913 -0.13088325 247.79045353 -0.12635762 251.27983093 -0.11860371 C252.30763326 -0.12374727 253.33543558 -0.12889083 254.39438343 -0.13419026 C255.32371535 -0.12959147 256.25304728 -0.12499267 257.21054077 -0.12025452 C258.01674205 -0.12047188 258.82294333 -0.12068925 259.65357494 -0.12091321 C261.60527039 0.12863445 261.60527039 0.12863445 263.60527039 2.12863445 C263.35527039 4.69113445 263.35527039 4.69113445 262.60527039 7.12863445 C260.2497149 8.3064122 258.85541266 8.25496378 256.22895145 8.25726891 C254.84110371 8.26210557 254.84110371 8.26210557 253.42521864 8.26703995 C251.89037476 8.26471705 251.89037476 8.26471705 250.32452393 8.26234722 C249.2427904 8.26461278 248.16105687 8.26687833 247.04654354 8.26921254 C243.39757009 8.27557652 239.74863356 8.27472165 236.09965515 8.27389812 C233.49342297 8.27688811 230.88719123 8.28029026 228.28096008 8.28407574 C221.9221231 8.2923935 215.56329538 8.29513108 209.20445342 8.29568812 C204.03766748 8.29616272 198.87088462 8.2982147 193.70409966 8.30138874 C179.06666636 8.31019823 164.42924041 8.31480763 149.79180444 8.31405827 C148.60735216 8.31399833 148.60735216 8.31399833 147.39897156 8.31393719 C146.60837658 8.31389631 145.8177816 8.31385543 145.00322919 8.31381331 C132.18548172 8.31340671 119.36776361 8.322979 106.55002464 8.33707555 C93.39999043 8.35142385 80.24997056 8.3583466 67.09992832 8.35748178 C59.71268947 8.35714928 52.3254814 8.35991933 44.93824959 8.37065983 C37.99360845 8.38069185 31.04903348 8.38044533 24.10438919 8.3731432 C21.54974333 8.37209279 18.99509348 8.37448702 16.44045448 8.38050365 C12.96455849 8.38816234 9.48889117 8.38361958 6.01300049 8.37587261 C4.99200195 8.38101618 3.97100342 8.38615974 2.91906554 8.39145917 C1.99122596 8.38686037 1.06338638 8.38226158 0.10743046 8.37752342 C-1.09674523 8.37784947 -1.09674523 8.37784947 -2.3252477 8.37818211 C-4.39472961 8.12863445 -4.39472961 8.12863445 -7.39472961 6.12863445 C-7.01972961 3.69113445 -7.01972961 3.69113445 -6.39472961 1.12863445 C-4.03476281 -0.05134895 -2.6318511 0.0022996 0 0 Z " fill="#E9EBEC" transform="translate(109.39472961425781,277.8713655471802)"/>
<path d="M0 0 C-1.30298774 3.61980811 -2.85499815 6.40865302 -5.203125 9.44921875 C-6.16907593 10.70847168 -6.16907593 10.70847168 -7.15454102 11.99316406 C-7.84604248 12.88229492 -8.53754395 13.77142578 -9.25 14.6875 C-9.96148193 15.61143555 -10.67296387 16.53537109 -11.40600586 17.48730469 C-13.59772097 20.32979546 -15.79779998 23.16562737 -18 26 C-19.30862193 27.68878025 -20.61721707 29.37758126 -21.92578125 31.06640625 C-24.73746699 34.69023376 -27.55636514 38.30834532 -30.37939453 41.92333984 C-35.51139362 48.49783739 -35.51139362 48.49783739 -40.61230469 55.09643555 C-43.89859116 59.30836322 -46.71263285 61.52647145 -52 63 C-55.68281898 63.21897843 -59.31641781 63.1798494 -63 63 C-63 62.34 -63 61.68 -63 61 C-62.34 61 -61.68 61 -61 61 C-60.67 60.01 -60.34 59.02 -60 58 C-58.87588148 56.84181729 -57.74488361 55.68959979 -56.58203125 54.5703125 C-51.24603621 49.27384335 -46.52372658 43.46089055 -41.96484375 37.49609375 C-39.63490461 34.53619095 -37.19859415 31.67396585 -34.75 28.8125 C-30.79894933 24.19076104 -26.98684766 19.48380982 -23.25 14.6875 C-22.32817959 13.52209223 -21.4063064 12.35672622 -20.484375 11.19140625 C-18.97051851 9.27062969 -17.54370416 7.3471902 -16.140625 5.33984375 C-11.57639918 -0.82186111 -7.41376903 -0.96526468 0 0 Z " fill="#F4F7F7" transform="translate(732,190)"/>
<path d="M0 0 C25.89838691 -2.54939161 25.89838691 -2.54939161 32.50048828 1.55419922 C36.03192102 5.14426707 41 11.71598309 41 17 C36.85612266 17.24882404 32.71627881 17.4293297 28.56713867 17.54931641 C27.15914157 17.59935413 25.75165777 17.66741993 24.34545898 17.75439453 C12.71534431 18.4552522 12.71534431 18.4552522 8.61376953 14.97558594 C6.78365403 12.39632036 5.36743045 9.84844438 4 7 C3.19524039 5.62045543 2.38392568 4.2446865 1.5625 2.875 C1.046875 1.92625 0.53125 0.9775 0 0 Z " fill="#FAFCFC" transform="translate(740,94)"/>
<path d="M0 0 C11.07255188 0.17990751 11.07255188 0.17990751 14.88208008 3.49365234 C17.60106626 6.74615473 19.95629883 10.55295173 19.95629883 14.88818359 C15.81234242 15.11212951 11.67165783 15.27460427 7.5234375 15.38256836 C6.11558662 15.42759764 4.70815133 15.48885069 3.30175781 15.56713867 C-8.35124978 16.1991522 -8.35124978 16.1991522 -12.50024414 12.98535156 C-14.3154955 10.689108 -15.72384134 8.49660116 -17.04370117 5.88818359 C-17.42856689 5.13093994 -17.81343262 4.37369629 -18.20996094 3.59350586 C-18.48509521 3.03074951 -18.76022949 2.46799316 -19.04370117 1.88818359 C-15.63732409 -1.51819349 -4.94524782 0.06547417 0 0 Z " fill="#F7F9F9" transform="translate(836.043701171875,220.11181640625)"/>
<path d="M0 0 C0.72489624 -0.00095673 1.44979248 -0.00191345 2.19665527 -0.00289917 C3.72989997 -0.00357993 5.26314755 -0.00173286 6.79638672 0.00244141 C9.14687558 0.00779116 11.49717335 0.00249297 13.84765625 -0.00390625 C15.33593792 -0.00324545 16.82421948 -0.00196425 18.3125 0 C19.01773804 -0.00202423 19.72297607 -0.00404846 20.44958496 -0.00613403 C25.42632514 0.01785007 25.42632514 0.01785007 27.65625 1.1328125 C27.698971 2.79893155 27.69688832 4.46664135 27.65625 6.1328125 C25.89552416 7.89353834 23.5772871 7.26116034 21.2322998 7.27175903 C20.47501587 7.2697348 19.71773193 7.26771057 18.9375 7.265625 C17.77788757 7.26706009 17.77788757 7.26706009 16.59484863 7.26852417 C14.95727456 7.26920591 13.31969781 7.26735207 11.68212891 7.26318359 C9.16693079 7.25783521 6.65191127 7.26312876 4.13671875 7.26953125 C2.54947877 7.26887047 0.9622389 7.2675893 -0.625 7.265625 C-1.38228394 7.26764923 -2.13956787 7.26967346 -2.9197998 7.27175903 C-8.22879868 7.24776382 -8.22879868 7.24776382 -9.34375 6.1328125 C-9.38438832 4.46664135 -9.386471 2.79893155 -9.34375 1.1328125 C-6.35092264 -0.36360118 -3.28096394 -0.00941729 0 0 Z " fill="#F2F5F6" transform="translate(426.34375,277.8671875)"/>
<path d="M0 0 C0.94101562 0.00322266 1.88203125 0.00644531 2.8515625 0.00976562 C3.83640625 0.01814453 4.82125 0.02652344 5.8359375 0.03515625 C6.82851563 0.03966797 7.82109375 0.04417969 8.84375 0.04882812 C11.2995391 0.0606348 13.75520854 0.07710225 16.2109375 0.09765625 C16.2109375 2.40765625 16.2109375 4.71765625 16.2109375 7.09765625 C8.6209375 7.09765625 1.0309375 7.09765625 -6.7890625 7.09765625 C-6.7890625 5.11765625 -6.7890625 3.13765625 -6.7890625 1.09765625 C-4.33631109 -0.12871945 -2.7384844 -0.01649689 0 0 Z " fill="#E3E6E7" transform="translate(692.7890625,163.90234375)"/>
<path d="M0 0 C6.93 0 13.86 0 21 0 C21 1.98 21 3.96 21 6 C17.68751813 6.02888146 14.37506833 6.04675799 11.0625 6.0625 C10.11697266 6.07087891 9.17144531 6.07925781 8.19726562 6.08789062 C6.84858398 6.09272461 6.84858398 6.09272461 5.47265625 6.09765625 C4.22367554 6.10551147 4.22367554 6.10551147 2.94946289 6.11352539 C1 6 1 6 0 5 C0 3.35 0 1.7 0 0 Z " fill="#DEE4E5" transform="translate(86,137)"/>
<path d="M0 0 C7.92 0 15.84 0 24 0 C24 0.33 24 0.66 24 1 C13.605 1.495 13.605 1.495 3 2 C2.93941406 5.2278125 2.87882812 8.455625 2.81640625 11.78125 C2.75450559 14.92547692 2.69116412 18.06967177 2.62768555 21.21386719 C2.58451322 23.39027013 2.54282654 25.5667031 2.50268555 27.74316406 C2.4445518 30.88095119 2.38098397 34.01858967 2.31640625 37.15625 C2.29969376 38.12115356 2.28298126 39.08605713 2.26576233 40.0802002 C2.14917851 45.45983248 1.76993473 50.67347648 1 56 C0.67 56 0.34 56 0 56 C0 37.52 0 19.04 0 0 Z " fill="#F0F5F5" transform="translate(288,94)"/>
<path d="M0 0 C0.495 1.485 0.495 1.485 1 3 C-3.72586127 5.4280425 -8.06141057 5.25824478 -13.23828125 5.1953125 C-14.55943184 5.19106766 -14.55943184 5.19106766 -15.90727234 5.18673706 C-18.70915545 5.17557833 -21.51071416 5.15048171 -24.3125 5.125 C-26.21679225 5.11496463 -28.12108952 5.10583975 -30.02539062 5.09765625 C-34.68371797 5.07565309 -39.34180406 5.04115294 -44 5 C-44 4.67 -44 4.34 -44 4 C-42.26713745 3.97812622 -42.26713745 3.97812622 -40.49926758 3.95581055 C-36.20322088 3.89773178 -31.90769306 3.8204995 -27.61206055 3.73754883 C-25.7547245 3.70434451 -23.89728863 3.67629859 -22.03979492 3.65356445 C-19.36594202 3.61993558 -16.69300007 3.56761626 -14.01953125 3.51171875 C-13.19226028 3.50532883 -12.36498932 3.4989389 -11.51264954 3.49235535 C-6.84551999 3.37398252 -3.85384366 2.92184616 0 0 Z " fill="#D3D9DC" transform="translate(152,151)"/>
<path d="M0 0 C0.66 0 1.32 0 2 0 C1.61104749 5.44533513 -0.2148953 8.12686961 -4 12 C-5.98 12.99 -5.98 12.99 -8 14 C-5.36 9.38 -2.72 4.76 0 0 Z " fill="#DEE6E8" transform="translate(613,223)"/>
<path d="M0 0 C1 3 1 3 0.07421875 5.04296875 C-0.61220703 6.10451172 -0.61220703 6.10451172 -1.3125 7.1875 C-1.98732422 8.26064453 -1.98732422 8.26064453 -2.67578125 9.35546875 C-3.33126953 10.16951172 -3.33126953 10.16951172 -4 11 C-4.66 11 -5.32 11 -6 11 C-6 11.66 -6 12.32 -6 13 C-6.66 13 -7.32 13 -8 13 C-6.40956621 7.91061189 -3.2553049 4.12543357 0 0 Z " fill="#DDE4EA" transform="translate(747,210)"/>
<path d="M0 0 C0.66 0.33 1.32 0.66 2 1 C1.67 1.99 1.34 2.98 1 4 C-1.8125 5.125 -1.8125 5.125 -5 6 C-6.11375 6.309375 -6.11375 6.309375 -7.25 6.625 C-9 7 -9 7 -11 7 C-11 6.34 -11 5.68 -11 5 C-10.37351563 4.72285156 -9.74703125 4.44570312 -9.1015625 4.16015625 C-8.28429687 3.79792969 -7.46703125 3.43570313 -6.625 3.0625 C-5.81289062 2.70285156 -5.00078125 2.34320313 -4.1640625 1.97265625 C-2.76316215 1.3430097 -1.37374716 0.68687358 0 0 Z " fill="#1A2124" transform="translate(167,173)"/>
<path d="M0 0 C1 3 1 3 0.22265625 5.04296875 C-0.16019531 5.75066406 -0.54304688 6.45835937 -0.9375 7.1875 C-1.31777344 7.90292969 -1.69804687 8.61835938 -2.08984375 9.35546875 C-2.39019531 9.89816406 -2.69054687 10.44085938 -3 11 C-4.32 10.67 -5.64 10.34 -7 10 C-6.34 10 -5.68 10 -5 10 C-4.731875 9.278125 -4.46375 8.55625 -4.1875 7.8125 C-3.01017502 5.02409874 -1.60854116 2.55904276 0 0 Z " fill="#E0E7E7" transform="translate(399,137)"/>
<path d="M0 0 C1 3 1 3 -0.3125 5.6875 C-0.869375 6.450625 -1.42625 7.21375 -2 8 C-2.66 8 -3.32 8 -4 8 C-4.33 8.99 -4.66 9.98 -5 11 C-5.33 10.34 -5.66 9.68 -6 9 C-4.02 6.03 -2.04 3.06 0 0 Z " fill="#D2DBDF" transform="translate(758,193)"/>
<path d="M0 0 C0.66 0.33 1.32 0.66 2 1 C1.21681311 4.91593446 -0.39179858 8.36406635 -2 12 C-3.15957207 8.52128379 -2.77456651 7.65780355 -1.5625 4.3125 C-1.13130859 3.10013672 -1.13130859 3.10013672 -0.69140625 1.86328125 C-0.46324219 1.24839844 -0.23507812 0.63351563 0 0 Z " fill="#DEE5E6" transform="translate(639,150)"/>
<path d="M0 0 C0.33 0.99 0.66 1.98 1 3 C-0.4375 5.6875 -0.4375 5.6875 -2 8 C-2.99 7.67 -3.98 7.34 -5 7 C-3.75023244 3.34683329 -3.32901247 2.21934164 0 0 Z " fill="#121C1D" transform="translate(396,139)"/>
<path d="M0 0 C0.66 0 1.32 0 2 0 C2.33 1.32 2.66 2.64 3 4 C2.34 4 1.68 4 1 4 C0.34 5.98 -0.32 7.96 -1 10 C-1.66 9.67 -2.32 9.34 -3 9 C-2.01 6.03 -1.02 3.06 0 0 Z " fill="#2A2F31" transform="translate(670,138)"/>
<path d="M0 0 C0.33 0.99 0.66 1.98 1 3 C0.34 3 -0.32 3 -1 3 C-1.2475 3.804375 -1.495 4.60875 -1.75 5.4375 C-2.1625 6.283125 -2.575 7.12875 -3 8 C-5.078125 8.66015625 -5.078125 8.66015625 -7 9 C-6.02180976 7.68677212 -5.0424189 6.37443848 -4.0625 5.0625 C-3.51722656 4.33160156 -2.97195313 3.60070312 -2.41015625 2.84765625 C-1 1 -1 1 0 0 Z " fill="#172124" transform="translate(698,236)"/>
<path d="M0 0 C0.66 0 1.32 0 2 0 C0.125 7.75 0.125 7.75 -1 10 C-1.66 10 -2.32 10 -3 10 C-2.01 6.7 -1.02 3.4 0 0 Z " fill="#1D2727" transform="translate(642,214)"/>
<path d="M0 0 C0.66 0.99 1.32 1.98 2 3 C1.67 3.66 1.34 4.32 1 5 C-1.5625 5.625 -1.5625 5.625 -4 6 C-1.125 1.125 -1.125 1.125 0 0 Z M2 1 C4 2 4 2 4 2 Z " fill="#111A1C" transform="translate(694,188)"/>
<path d="M0 0 C2.475 0.495 2.475 0.495 5 1 C5.33 2.65 5.66 4.3 6 6 C5.01 6.495 5.01 6.495 4 7 C2.02 3.535 2.02 3.535 0 0 Z " fill="#192222" transform="translate(772,97)"/>
<path d="M0 0 C0.66 0.33 1.32 0.66 2 1 C1.0479279 2.00596297 0.08812654 3.00461563 -0.875 4 C-1.40867187 4.556875 -1.94234375 5.11375 -2.4921875 5.6875 C-4 7 -4 7 -6 7 C-6 6.34 -6 5.68 -6 5 C-5.34 5 -4.68 5 -4 5 C-3.67 4.01 -3.34 3.02 -3 2 C-2.01 1.34 -1.02 0.68 0 0 Z " fill="#D9DFE2" transform="translate(675,246)"/>
<path d="M0 0 C0.33 1.32 0.66 2.64 1 4 C0.01 4.33 -0.98 4.66 -2 5 C-3.20882096 7.00016466 -3.20882096 7.00016466 -4 9 C-4 5.00095031 -2.27413033 3.19799578 0 0 Z " fill="#D4DCE1" transform="translate(737,224)"/>
<path d="M0 0 C0.33 0 0.66 0 1 0 C0.67 2.31 0.34 4.62 0 7 C-1.32 6.67 -2.64 6.34 -4 6 C-2.69593116 3.98079663 -1.36176581 1.98075027 0 0 Z " fill="#D6DEE0" transform="translate(774,168)"/>
<path d="M0 0 C1 3 1 3 0.25 5.625 C-1 8 -1 8 -4 9 C-2.80100302 5.9168649 -1.52299523 2.93720508 0 0 Z " fill="#212A2D" transform="translate(425,143)"/>
<path d="M0 0 C0.66 0 1.32 0 2 0 C1.60196439 2.88575819 1.20990931 3.82189513 -1.0625 5.75 C-1.701875 6.1625 -2.34125 6.575 -3 7 C-1.125 2.25 -1.125 2.25 0 0 Z M-4 7 C-3.67 7.66 -3.34 8.32 -3 9 C-3.66 8.67 -4.32 8.34 -5 8 C-4.67 7.67 -4.34 7.34 -4 7 Z " fill="#161C1D" transform="translate(823,130)"/>
</svg>
